:SAMPLES-PER-SECOND 30
:FULLY-SPECIFIED
:DEGREES
352
root  10.4265 35.0923 23.4598 10.8563 -48.024 2.02368
RightUpLeg  -54.2233 -11.8195 13.0157
RightLeg  43.2392 11.6899 -5.17363
RightFoot  -10.2836 0.0974785 -2.75542
RightToes  -5.82073e-011 -3.18055e-015 -2.98177e-016
Spine  12.1127 -7.2032 0.383389
Spine1  -0.55618 -8.54109 9.98529
HEad  -23.3564 16.251 -1.47801
LeftShoulder1  -3.88251e-019 9.70628e-020 -3.87848e-018
LeftArm  -3.02738 45.3197 -72.035
LeftForeArm  -29.8613 -72.6725 39.5161
LeftHand  -5.93442 -14.8875 34.0847
RightShoulder  5.02723 9.12243 24.9044
RightArm  75.9857 -58.0479 -49.5911
RightForeArm  -31.8628 56.3547 -39.5132
RightHand  -1.7687 4.1985 -21.0491
LeftUpLeg  4.42036 4.18093 -3.44853
LeftLeg  36.1513 3.47801 14.4934
LeftFoot  -11.6611 0.140639 -19.9381
LeftToes  1.2018e-011 -3.94675e-011 -1.33631e-011
353
root  8.77159 34.7142 24.9647 14.055 -51.2026 -2.76873
RightUpLeg  -52.5772 -11.6506 16.2046
RightLeg  48.4656 13.6037 -3.64408
RightFoot  -11.8089 0.110149 -7.08154
RightToes  -5.82073e-011 -3.18055e-015 -2.98177e-016
Spine  14.0906 -5.37002 4.07928
Spine1  -2.02657 -6.45376 11.7432
HEad  -24.6357 16.3204 0.689387
LeftShoulder1  -3.88251e-019 9.70628e-020 -3.87848e-018
LeftArm  -1.20978 49.0337 -76.7174
LeftForeArm  -24.6957 -70.0464 32.4756
LeftHand  -6.06724 -15.1212 34.1195
RightShoulder  5.15168 9.0137 25.8483
RightArm  63.5612 -56.729 -37.7745
RightForeArm  -37.4615 58.3202 -42.7793
RightHand  -1.66112 3.57489 -21.1192
LeftUpLeg  -3.55413 6.1124 -1.7331
LeftLeg  54.4005 -0.112789 21.6739
LeftFoot  -2.97877 1.19175 -13.2434
LeftToes  1.2018e-011 -3.94675e-011 -1.33631e-011
354
root  7.1581 34.3705 26.3684 17.1689 -54.7872 -7.58956
RightUpLeg  -49.6878 -10.1355 17.975
RightLeg  53.0617 14.7933 -2.39004
RightFoot  -16.2682 -0.198112 -9.65981
RightToes  -5.82073e-011 -3.18055e-015 -2.98177e-016
Spine  15.856 -3.65867 6.50011
Spine1  -2.97425 -4.54722 13.5161
HEad  -24.8022 16.9627 1.22974
LeftShoulder1  -3.88251e-019 9.70628e-020 -3.87848e-018
LeftArm  -0.652066 52.9515 -80.0316
LeftForeArm  -14.8148 -62.2094 21.6054
LeftHand  -4.87715 -14.0581 29.3905
RightShoulder  5.30365 8.9302 26.9059
RightArm  48.9222 -52.5017 -20.3648
RightForeArm  -43.8833 60.6776 -47.6526
RightHand  -2.08496 4.81022 -23.2209
LeftUpLeg  -13.4958 8.3155 -1.12455
LeftLeg  72.9863 -7.87107 25.5517
LeftFoot  -2.44013 0.599626 -6.21344
LeftToes  1.2018e-011 -3.94675e-011 -1.33631e-011
355
root  5.57608 34.3522 27.7317 18.3723 -58.1937 -9.93884
RightUpLeg  -45.666 -8.16106 17.2016
RightLeg  55.744 15.3424 -1.64715
RightFoot  -20.6296 -0.519075 -9.11278
RightToes  -5.82073e-011 -3.18055e-015 -2.98177e-016
Spine  17.0969 -2.73199 8.15635
Spine1  -3.33769 -3.29565 12.8695
HEad  -25.3489 17.7403 0.0261777
LeftShoulder1  -3.88251e-019 9.70628e-020 -3.87848e-018
LeftArm  -0.682286 57.8671 -77.9141
LeftForeArm  -1.17253 -52.931 15.5009
LeftHand  -5.33782 -14.7432 30.7391
RightShoulder  5.35803 9.01233 27.0553
RightArm  37.5532 -45.7957 -2.77851
RightForeArm  -50.8883 63.7368 -56.6235
RightHand  -2.97086 8.17174 -24.993
LeftUpLeg  -25.389 9.62979 -3.03027
LeftLeg  90.1418 -15.6867 25.3919
LeftFoot  -5.75002 0.0676589 -1.34224
LeftToes  1.2018e-011 -3.94675e-011 -1.33631e-011
356
root  4.01917 34.6535 29.1539 17.1367 -61.7531 -9.72183
RightUpLeg  -40.7149 -6.63161 14.5635
RightLeg  56.5587 15.7578 -0.961644
RightFoot  -23.2485 -0.587857 -7.53935
RightToes  -5.82073e-011 -3.18055e-015 -2.98177e-016
Spine  18.098 -2.31006 12.5504
Spine1  -3.48805 -1.27929 5.31527
HEad  -26.3776 16.3546 -0.323364
LeftShoulder1  -3.88251e-019 9.70628e-020 -3.87848e-018
LeftArm  4.07128 62.7823 -64.5395
LeftForeArm  12.1638 -48.4327 13.7888
LeftHand  -7.223 -15.2991 39.8992
RightShoulder  5.10698 9.11159 25.3907
RightArm  30.4906 -39.7377 9.77784
RightForeArm  -66.3045 67.1632 -74.4225
RightHand  -3.65189 11.0912 -25.274
LeftUpLeg  -38.6605 9.82488 -6.36977
LeftLeg  104.109 -20.7739 22.0508
LeftFoot  -8.04372 -0.0847948 1.3125
LeftToes  1.2018e-011 -3.94675e-011 -1.33631e-011
357
root  2.3303 35.3402 30.7124 13.5067 -65.3399 -6.87666
RightUpLeg  -34.4584 -6.27796 10.5826
RightLeg  54.9648 16.7325 0.568561
RightFoot  -24.8869 -0.626685 -6.9536
RightToes  -5.82073e-011 -3.18055e-015 -2.98177e-016
Spine  18.2044 -1.47315 18.9009
Spine1  -3.49827 2.05409 -7.74073
HEad  -26.292 11.5939 1.42659
LeftShoulder1  -3.88251e-019 9.70628e-020 -3.87848e-018
LeftArm  18.453 62.742 -39.6894
LeftForeArm  14.0379 -50.6606 14.9954
LeftHand  -8.47433 -14.4063 48.0027
RightShoulder  4.4717 8.9402 21.9531
RightArm  24.7494 -35.8705 13.7738
RightForeArm  -93.0055 67.7757 -101.838
RightHand  -3.92781 12.2149 -25.443
LeftUpLeg  -52.3144 8.9806 -9.33797
LeftLeg  111.804 -22.8111 19.7153
LeftFoot  -9.23423 -0.0968442 2.12955
LeftToes  1.2018e-011 -3.94675e-011 -1.33631e-011
358
root  0.454294 36.6407 32.3458 6.41238 -67.4871 0.0180636
RightUpLeg  -26.4168 -7.32486 4.96321
RightLeg  49.5544 19.0541 3.23273
RightFoot  -24.6038 -0.516381 -6.05696
RightToes  -5.82073e-011 -3.18055e-015 -2.98177e-016
Spine  17.1524 0.0754543 22.2031
Spine1  -3.25105 5.09985 -18.8291
HEad  -23.8927 5.16252 3.16699
LeftShoulder1  -3.88251e-019 9.70628e-020 -3.87848e-018
LeftArm  31.5876 55.9237 -19.2072
LeftForeArm  4.05627 -55.1034 17.1937
LeftHand  -8.86632 -14.2804 50.2217
RightShoulder  3.63548 8.31779 17.8958
RightArm  18.6866 -33.8462 9.72042
RightForeArm  -115.125 64.6774 -123.146
RightHand  -4.15176 12.3316 -26.6667
LeftUpLeg  -64.8837 6.94284 -11.2104
LeftLeg  111.563 -22.8535 20.0426
LeftFoot  -10.8786 -0.0854824 2.95928
LeftToes  1.2018e-011 -3.94675e-011 -1.33631e-011
359
root  -1.53361 38.5661 33.9786 -3.3436 -67.2542 9.65886
RightUpLeg  -16.6771 -8.85348 -1.74602
RightLeg  39.8608 22.233 5.01387
RightFoot  -18.4286 -0.0986053 -2.50827
RightToes  -5.82073e-011 -3.18055e-015 -2.98177e-016
Spine  15.6459 1.51297 20.4868
Spine1  -3.1617 6.23341 -23.9119
HEad  -19.0399 -0.201226 2.78024
LeftShoulder1  -3.88251e-019 9.70628e-020 -3.87848e-018
LeftArm  39.0529 47.2739 -6.83604
LeftForeArm  -5.68767 -57.0896 17.9377
LeftHand  -8.54739 -14.1052 49.0017
RightShoulder  2.82064 7.43035 14.0228
RightArm  13.776 -33.3817 2.69292
RightForeArm  -125.456 63.1095 -129.872
RightHand  -4.37323 11.9686 -28.5904
LeftUpLeg  -73.8909 4.76926 -12.0696
LeftLeg  105.321 -20.1609 19.2795
LeftFoot  -11.6654 -0.0783783 3.69474
LeftToes  1.2018e-011 -3.94675e-011 -1.33631e-011
360
root  -3.488 40.8079 35.5484 -12.9928 -66.2141 18.9241
RightUpLeg  -7.4201 -9.08351 -8.00108
RightLeg  27.8115 22.8687 3.40029
RightFoot  -4.17133 -0.263516 2.92472
RightToes  -5.82073e-011 -3.18055e-015 -2.98177e-016
Spine  14.8314 2.26613 16.0396
Spine1  -3.57285 5.99914 -26.0505
HEad  -12.5059 -3.26571 0.58051
LeftShoulder1  -3.88251e-019 9.70628e-020 -3.87848e-018
LeftArm  44.2644 39.6923 2.53618
LeftForeArm  -9.72589 -56.3202 17.0422
LeftHand  -7.45618 -12.9924 45.7736
RightShoulder  2.3034 6.87602 11.2858
RightArm  12.4637 -33.952 -5.04097
RightForeArm  -129.46 64.0831 -127.67
RightHand  -4.31867 11.136 -29.5869
LeftUpLeg  -78.2838 4.34456 -12.4972
LeftLeg  95.9432 -16.1169 15.7909
LeftFoot  -9.76647 -0.0915118 2.42526
LeftToes  1.2018e-011 -3.94675e-011 -1.33631e-011
361
root  -5.18481 42.9069 36.9698 -20.3392 -66.7157 25.9384
RightUpLeg  -2.52301 -8.45391 -11.6673
RightLeg  19.252 19.1816 0.451443
RightFoot  12.7217 -1.31539 5.7476
RightToes  -5.82073e-011 -3.18055e-015 -2.98177e-016
Spine  14.9725 2.79218 12.4125
Spine1  -3.83934 6.24053 -28.6285
HEad  -5.92166 -4.34013 -2.37489
LeftShoulder1  -3.88251e-019 9.70628e-020 -3.87848e-018
LeftArm  47.8246 33.7475 10.0598
LeftForeArm  -12.7209 -54.5349 15.6156
LeftHand  -6.24751 -12.3086 40.4295
RightShoulder  2.18773 6.92771 10.3744
RightArm  13.7713 -34.1703 -14.1338
RightForeArm  -128.893 65.8818 -121.234
RightHand  -3.82593 9.98493 -28.2134
LeftUpLeg  -79.7776 5.93717 -11.1857
LeftLeg  85.1228 -13.1541 13.8809
LeftFoot  -6.98415 -0.066092 0.833775
LeftToes  1.2018e-011 -3.94675e-011 -1.33631e-011
362
root  -6.63784 44.5001 38.3151 -25.3507 -69.1717 30.545
RightUpLeg  -3.20066 -9.69867 -12.3634
RightLeg  20.4126 16.3986 -0.595749
RightFoot  21.2036 -1.12074 3.2984
RightToes  -5.82073e-011 -3.18055e-015 -2.98177e-016
Spine  15.1862 3.42379 10.4912
Spine1  -2.87861 7.30942 -30.4318
HEad  -1.19741 -3.90858 -5.97591
LeftShoulder1  -3.88251e-019 9.70628e-020 -3.87848e-018
LeftArm  49.3413 30.2703 15.632
LeftForeArm  -17.3259 -51.832 13.6904
LeftHand  -5.25748 -12.2269 34.6188
RightShoulder  2.25297 7.17398 10.4836
RightArm  14.9366 -33.4784 -22.948
RightForeArm  -120.887 67.7274 -110.348
RightHand  -3.34426 9.16028 -26.1635
LeftUpLeg  -79.2147 8.03368 -6.49535
LeftLeg  74.7295 -10.4602 15.5872
LeftFoot  -4.83112 -0.096422 1.10578
LeftToes  1.2018e-011 -3.94675e-011 -1.33631e-011
363
root  -8.01712 45.5322 39.6966 -30.5678 -71.7466 34.3791
RightUpLeg  -6.87466 -12.1656 -11.7163
RightLeg  31.0926 16.8073 -0.141995
RightFoot  18.7938 0.372383 -1.66837
RightToes  -5.82073e-011 -3.18055e-015 -2.98177e-016
Spine  15.5471 3.58887 8.41265
Spine1  -0.18528 8.05104 -29.4836
HEad  0.835334 -2.13789 -9.7178
LeftShoulder1  -3.88251e-019 9.70628e-020 -3.87848e-018
LeftArm  49.7606 29.4863 20.1475
LeftForeArm  -19.9226 -46.993 11.155
LeftHand  -4.48577 -11.7239 30.6844
RightShoulder  2.30805 7.29197 10.7009
RightArm  15.1587 -33.1132 -29.2455
RightForeArm  -106.642 68.7623 -94.5431
RightHand  -3.11946 8.29549 -25.9496
LeftUpLeg  -75.3806 8.49546 0.375269
LeftLeg  66.4652 -7.78243 16.7534
LeftFoot  -1.987 -0.194007 1.95839
LeftToes  1.2018e-011 -3.94675e-011 -1.33631e-011
364
root  -9.3893 46.2032 41.1298 -37.8907 -73.259 38.993
RightUpLeg  -10.2618 -14.7871 -11.1897
RightLeg  43.9362 16.9064 0.266699
RightFoot  13.2201 1.45257 -6.39055
RightToes  -5.82073e-011 -3.18055e-015 -2.98177e-016
Spine  16.8598 2.93506 5.68844
Spine1  3.3906 7.94303 -27.1811
HEad  1.03787 0.42744 -12.1192
LeftShoulder1  -3.88251e-019 9.70628e-020 -3.87848e-018
LeftArm  50.2949 30.0311 23.9261
LeftForeArm  -18.9287 -39.8321 8.5187
LeftHand  -3.98383 -10.8629 28.8339
RightShoulder  2.41903 7.35466 11.3796
RightArm  15.2533 -33.9963 -33.2736
RightForeArm  -91.1051 68.1429 -76.7448
RightHand  -2.78768 6.43981 -26.741
LeftUpLeg  -68.309 6.43153 6.58867
LeftLeg  60.5911 -6.93542 14.3634
LeftFoot  1.20023 -0.156186 1.29346
LeftToes  1.2018e-011 -3.94675e-011 -1.33631e-011
365
root  -10.771 46.6301 42.6134 -45.6433 -74.4722 44.0737
RightUpLeg  -13.768 -17.2634 -9.88773
RightLeg  52.6684 15.0819 -1.95149
RightFoot  9.53402 1.68838 -8.55076
RightToes  -5.82073e-011 -3.18055e-015 -2.98177e-016
Spine  18.4415 2.1043 3.69397
Spine1  6.47837 7.67907 -25.6373
HEad  0.404097 2.84312 -12.9044
LeftShoulder1  -3.88251e-019 9.70628e-020 -3.87848e-018
LeftArm  50.2376 30.7893 26.0988
LeftForeArm  -18.3368 -31.8678 5.86854
LeftHand  -3.37832 -9.47141 26.8564
RightShoulder  2.6449 7.37775 12.9023
RightArm  15.9544 -35.7081 -36.5014
RightForeArm  -75.0923 65.4941 -59.9924
RightHand  -2.46684 4.94586 -27.0256
LeftUpLeg  -60.8734 3.3707 10.5677
LeftLeg  56.6036 -7.65849 10.8849
LeftFoot  3.69212 0.0600482 -0.341095
LeftToes  1.2018e-011 -3.94675e-011 -1.33631e-011
366
root  -12.1753 46.7386 44.1339 -51.4436 -76.0461 48.5567
RightUpLeg  -18.2356 -19.0862 -6.51662
RightLeg  55.3769 12.6356 -6.01798
RightFoot  7.92622 1.50116 -8.22575
RightToes  -5.82073e-011 -3.18055e-015 -2.98177e-016
Spine  19.0654 1.59673 2.69839
Spine1  8.69916 7.52458 -24.2731
HEad  -0.970593 4.77785 -13.5395
LeftShoulder1  -3.88251e-019 9.70628e-020 -3.87848e-018
LeftArm  45.4677 32.3726 26.8391
LeftForeArm  -17.5828 -25.4361 2.21193
LeftHand  -2.41712 -6.98168 23.326
RightShoulder  2.86939 7.32159 14.5299
RightArm  17.5179 -37.6233 -39.4109
RightForeArm  -59.7461 61.1438 -46.849
RightHand  -2.50906 4.95445 -27.4538
LeftUpLeg  -55.2171 1.24975 12.4585
LeftLeg  53.5819 -7.89669 9.38178
LeftFoot  6.30743 0.286247 -1.57452
LeftToes  1.2018e-011 -3.94675e-011 -1.33631e-011
